# xmcd
#
# Track frame offsets:
# 150
# 19664
# 48265
# 70874
# 93775
# 121549
#
# Disc length: 1845 seconds
#
#
# Revision: 0
# Processed by: cddbd v1.5.2PL0 Copyright (c) Steve Scherf et al.
# Submitted via: FreeRIP 2.945 
#
DISCID=3b073306
DTITLE=The New Briscoe Brothers - Ministers of Music
DYEAR=2007
DGENRE=Gospel
TTITLE0=For That Day
TTITLE1=In Spite Of
TTITLE2=Must Be Born Again
TTITLE3=My Sheep (Hear My Voice)
TTITLE4=Stay On The Right Side
TTITLE5=I Need A Friend
EXTD=
EXTT0=
EXTT1=
EXTT2=
EXTT3=
EXTT4=
EXTT5=
PLAYORDER=
